<mxfile host="65bd71144e">
    <diagram id="UGm2gun9G9EqlLNIAsRJ" name="PÃ¡gina-1">
        <mxGraphModel dx="832" dy="480" grid="1" gridSize="10" guides="1" tooltips="1" connect="1" arrows="1" fold="1" page="1" pageScale="1" pageWidth="827" pageHeight="1169" math="0" shadow="0">
            <root>
                <mxCell id="0"/>
                <mxCell id="1" parent="0"/>
                <mxCell id="15" value="" style="ellipse;whiteSpace=wrap;html=1;aspect=fixed;" parent="1" vertex="1">
                    <mxGeometry x="420" y="160" width="100" height="100" as="geometry"/>
                </mxCell>
                <mxCell id="2" value="S1" style="ellipse;whiteSpace=wrap;html=1;aspect=fixed;" parent="1" vertex="1">
                    <mxGeometry x="130" y="170" width="80" height="80" as="geometry"/>
                </mxCell>
                <mxCell id="3" value="S2" style="ellipse;whiteSpace=wrap;html=1;aspect=fixed;" parent="1" vertex="1">
                    <mxGeometry x="270" y="170" width="80" height="80" as="geometry"/>
                </mxCell>
                <mxCell id="4" value="S3" style="ellipse;whiteSpace=wrap;html=1;aspect=fixed;" parent="1" vertex="1">
                    <mxGeometry x="430" y="170" width="80" height="80" as="geometry"/>
                </mxCell>
                <mxCell id="5" value="S4" style="ellipse;whiteSpace=wrap;html=1;aspect=fixed;" parent="1" vertex="1">
                    <mxGeometry x="580" y="170" width="80" height="80" as="geometry"/>
                </mxCell>
                <mxCell id="7" value="" style="endArrow=classic;html=1;exitX=0.588;exitY=-0.025;exitDx=0;exitDy=0;exitPerimeter=0;entryX=0.5;entryY=0;entryDx=0;entryDy=0;" parent="1" source="2" target="3" edge="1">
                    <mxGeometry relative="1" as="geometry">
                        <mxPoint x="190" y="130" as="sourcePoint"/>
                        <mxPoint x="290" y="130" as="targetPoint"/>
                        <Array as="points">
                            <mxPoint x="190" y="140"/>
                            <mxPoint x="230" y="130"/>
                            <mxPoint x="290" y="140"/>
                        </Array>
                    </mxGeometry>
                </mxCell>
                <mxCell id="8" value="a" style="edgeLabel;resizable=0;html=1;align=center;verticalAlign=middle;" parent="7" connectable="0" vertex="1">
                    <mxGeometry relative="1" as="geometry"/>
                </mxCell>
                <mxCell id="9" value="" style="endArrow=classic;html=1;exitX=1;exitY=0.5;exitDx=0;exitDy=0;entryX=0;entryY=0.5;entryDx=0;entryDy=0;" parent="1" source="3" target="4" edge="1">
                    <mxGeometry relative="1" as="geometry">
                        <mxPoint x="380" y="250" as="sourcePoint"/>
                        <mxPoint x="370" y="310" as="targetPoint"/>
                    </mxGeometry>
                </mxCell>
                <mxCell id="10" value="b" style="edgeLabel;resizable=0;html=1;align=center;verticalAlign=middle;" parent="9" connectable="0" vertex="1">
                    <mxGeometry relative="1" as="geometry"/>
                </mxCell>
                <mxCell id="11" value="" style="endArrow=classic;html=1;exitX=0.5;exitY=1;exitDx=0;exitDy=0;entryX=0.5;entryY=1;entryDx=0;entryDy=0;" parent="1" source="15" target="5" edge="1">
                    <mxGeometry relative="1" as="geometry">
                        <mxPoint x="430" y="310" as="sourcePoint"/>
                        <mxPoint x="530" y="310" as="targetPoint"/>
                        <Array as="points">
                            <mxPoint x="510" y="290"/>
                            <mxPoint x="590" y="290"/>
                        </Array>
                    </mxGeometry>
                </mxCell>
                <mxCell id="12" value="c" style="edgeLabel;resizable=0;html=1;align=center;verticalAlign=middle;" parent="11" connectable="0" vertex="1">
                    <mxGeometry relative="1" as="geometry"/>
                </mxCell>
                <mxCell id="13" value="" style="endArrow=classic;html=1;exitX=0;exitY=1;exitDx=0;exitDy=0;entryX=1;entryY=1;entryDx=0;entryDy=0;" parent="1" source="3" target="3" edge="1">
                    <mxGeometry relative="1" as="geometry">
                        <mxPoint x="280" y="320" as="sourcePoint"/>
                        <mxPoint x="380" y="320" as="targetPoint"/>
                        <Array as="points">
                            <mxPoint x="282" y="300"/>
                            <mxPoint x="320" y="310"/>
                            <mxPoint x="340" y="290"/>
                        </Array>
                    </mxGeometry>
                </mxCell>
                <mxCell id="14" value="a" style="edgeLabel;resizable=0;html=1;align=center;verticalAlign=middle;" parent="13" connectable="0" vertex="1">
                    <mxGeometry relative="1" as="geometry"/>
                </mxCell>
                <mxCell id="16" value="" style="endArrow=classic;html=1;entryX=0.5;entryY=0;entryDx=0;entryDy=0;exitX=0.5;exitY=0;exitDx=0;exitDy=0;" parent="1" source="5" target="15" edge="1">
                    <mxGeometry relative="1" as="geometry">
                        <mxPoint x="670" y="90" as="sourcePoint"/>
                        <mxPoint x="630" y="150" as="targetPoint"/>
                        <Array as="points">
                            <mxPoint x="590" y="120"/>
                            <mxPoint x="500" y="120"/>
                        </Array>
                    </mxGeometry>
                </mxCell>
                <mxCell id="17" value="c" style="edgeLabel;resizable=0;html=1;align=center;verticalAlign=middle;" parent="16" connectable="0" vertex="1">
                    <mxGeometry relative="1" as="geometry"/>
                </mxCell>
                <mxCell id="18" value="" style="endArrow=classic;html=1;exitX=1;exitY=1;exitDx=0;exitDy=0;entryX=1;entryY=0.375;entryDx=0;entryDy=0;entryPerimeter=0;" parent="1" source="5" target="5" edge="1">
                    <mxGeometry relative="1" as="geometry">
                        <mxPoint x="650" y="240" as="sourcePoint"/>
                        <mxPoint x="800" y="230" as="targetPoint"/>
                        <Array as="points">
                            <mxPoint x="690" y="270"/>
                            <mxPoint x="710" y="238"/>
                        </Array>
                    </mxGeometry>
                </mxCell>
                <mxCell id="19" value="c" style="edgeLabel;resizable=0;html=1;align=center;verticalAlign=middle;" parent="18" connectable="0" vertex="1">
                    <mxGeometry relative="1" as="geometry"/>
                </mxCell>
                <mxCell id="20" value="" style="endArrow=classic;html=1;exitX=1;exitY=1;exitDx=0;exitDy=0;entryX=0.564;entryY=1.036;entryDx=0;entryDy=0;entryPerimeter=0;" parent="1" source="2" target="2" edge="1">
                    <mxGeometry relative="1" as="geometry">
                        <mxPoint x="200" y="260" as="sourcePoint"/>
                        <mxPoint x="200" y="280" as="targetPoint"/>
                        <Array as="points">
                            <mxPoint x="220" y="260"/>
                            <mxPoint x="210" y="270"/>
                            <mxPoint x="190" y="270"/>
                        </Array>
                    </mxGeometry>
                </mxCell>
                <mxCell id="21" value="d" style="edgeLabel;resizable=0;html=1;align=center;verticalAlign=middle;" parent="20" connectable="0" vertex="1">
                    <mxGeometry relative="1" as="geometry"/>
                </mxCell>
                <mxCell id="22" value="" style="endArrow=classic;html=1;exitX=0;exitY=0.5;exitDx=0;exitDy=0;entryX=0;entryY=0;entryDx=0;entryDy=0;" parent="1" source="2" target="2" edge="1">
                    <mxGeometry relative="1" as="geometry">
                        <mxPoint x="70" y="270" as="sourcePoint"/>
                        <mxPoint x="120" y="140" as="targetPoint"/>
                        <Array as="points">
                            <mxPoint x="100" y="190"/>
                            <mxPoint x="110" y="170"/>
                        </Array>
                    </mxGeometry>
                </mxCell>
                <mxCell id="23" value="t" style="edgeLabel;resizable=0;html=1;align=center;verticalAlign=middle;" parent="22" connectable="0" vertex="1">
                    <mxGeometry relative="1" as="geometry"/>
                </mxCell>
                <mxCell id="24" value="&lt;span&gt;&lt;font style=&quot;font-size: 24px;&quot;&gt;d*t*a&lt;sup&gt;+&lt;/sup&gt;bc*&lt;/font&gt;&lt;/span&gt;" style="rounded=1;whiteSpace=wrap;html=1;" vertex="1" parent="1">
                    <mxGeometry x="150" y="30" width="120" height="60" as="geometry"/>
                </mxCell>
                <mxCell id="25" value="&lt;font style=&quot;font-size: 18px;&quot;&gt;BOMB-IPI&lt;/font&gt;" style="rounded=1;whiteSpace=wrap;html=1;fontSize=24;" vertex="1" parent="1">
                    <mxGeometry x="340" y="330" width="120" height="60" as="geometry"/>
                </mxCell>
            </root>
        </mxGraphModel>
    </diagram>
</mxfile>